<svg aria-hidden="true" style="position: absolute; width: 0; height: 0; overflow: hidden;" version="1.1" xmlns="http://www.w3.org/2000/svg" xmlns:xlink="http://www.w3.org/1999/xlink">
<defs>


<symbol id="icon-arrow-left" viewBox="0 0 32 32">
<path d="M32 12h-16l6-6-6-6-16 16 16 16 6-6-6-6h16z"></path>
</symbol>
<symbol id="icon-arrow-down" viewBox="0 0 32 32">
<path d="M12 0v16l-6-6-6 6 16 16 16-16-6-6-6 6v-16z"></path>
</symbol>
<symbol id="icon-arrow-right" viewBox="0 0 32 32">
<path d="M0 20h16l-6 6 6 6 16-16-16-16-6 6 6 6h-16z"></path>
</symbol>
<symbol id="icon-arrow-up" viewBox="0 0 32 32">
<path d="M20 32v-16l6 6 6-6-16-16-16 16 6 6 6-6v16z"></path>
</symbol>
<symbol id="icon-how_to_reg" viewBox="0 0 24 24">
<path d="M15.469 20.484l-3.469-3.469 1.406-1.406 2.063 2.063 5.109-5.156 1.406 1.406zM11.016 12q-1.641 0-2.836-1.172t-1.195-2.813 1.195-2.836 2.836-1.195 2.813 1.195 1.172 2.836-1.172 2.813-2.813 1.172zM9 17.016l3 3h-9v-2.016q0-1.781 2.742-2.883t5.273-1.102q0.703 0 0.984 0.047z"></path>
</symbol>
<symbol id="icon-phone_in_talk" viewBox="0 0 24 24">
<path d="M15 12q0-1.219-0.891-2.109t-2.109-0.891v-2.016q2.063 0 3.539 1.477t1.477 3.539h-2.016zM18.984 12q0-2.906-2.039-4.945t-4.945-2.039v-2.016q3.75 0 6.375 2.625t2.625 6.375h-2.016zM20.016 15.516q0.422 0 0.703 0.281t0.281 0.703v3.516q0 0.422-0.281 0.703t-0.703 0.281q-7.031 0-12.023-4.992t-4.992-12.023q0-0.422 0.281-0.703t0.703-0.281h3.516q0.422 0 0.703 0.281t0.281 0.703v0.047q0 1.922 0.563 3.516 0.094 0.188 0.094 0.328 0 0.469-0.328 0.703l-2.203 2.203q0.938 1.781 2.883 3.727t3.727 2.883l2.203-2.203q0.328-0.328 0.703-0.328 0.141 0 0.328 0.094 1.688 0.563 3.563 0.563z"></path>
</symbol>
<symbol id="icon-mail-material-4-svgrepo-com" viewBox="0 0 32 32">
<path d="M24.745 17.557v6.89l-6.413-6.312 2.626-2.229c-0.608-0.477-1.14-1.043-1.575-1.676l-5.442 4.619c-0.106 0.089-0.262 0.139-0.431 0.139-0.165 0-0.321-0.051-0.426-0.139l-9.972-8.461h14.865c-0.021-0.236-0.034-0.477-0.034-0.722 0-0.519 0.051-1.026 0.144-1.52h-18.087v20.265h27.020v-10.842c-0.359 0.051-0.726 0.076-1.098 0.076-0.401 0-0.794-0.030-1.178-0.089zM2.276 12.693l6.413 5.442-6.413 6.312v-11.754zM3.931 26.169l6.586-6.485 0.861 0.73c0.574 0.49 1.33 0.756 2.132 0.756s1.562-0.266 2.132-0.752l0.861-0.735 6.586 6.485h-19.159z"></path>
<path d="M25.922 3.589c-3.357 0-6.078 2.721-6.078 6.079s2.721 6.079 6.078 6.079c3.357 0 6.078-2.721 6.078-6.079s-2.721-6.079-6.078-6.079zM27.477 13.219h-1.629v-5.349l-1.817 1.579v-1.755l1.817-1.579h1.629v7.104z"></path>
</symbol>
<symbol id="icon-facebook-overlapping-logo-svgrepo-com" viewBox="0 0 32 32">
<path d="M8.455 6.816h13.91v-4.94h-22.365v22.127h8.455z"></path>
<path d="M9.637 7.997v22.128h11.070v-7.667h-2.984v-3.456h2.983v-2.547c0-2.958 1.805-4.567 4.442-4.567 1.263 0 2.347 0.094 2.666 0.135v3.091l-1.829 0.001c-1.433 0-1.711 0.681-1.711 1.68v2.207h3.419l-0.446 3.456h-2.974v7.667h7.726v-22.128h-22.362z"></path>
</symbol>
<symbol id="icon-viber-svgrepo-com-2" viewBox="0 0 32 32">
<path fill="#665cac" style="fill: var(--color1, #665cac)" d="M19.2 0h-6.401c-6.177 0-11.201 5.025-11.201 11.201v4.801c0 4.336 2.501 8.271 6.401 10.123v5.346c0 0.464 0.581 0.707 0.911 0.377l4.644-4.644h5.646c6.177 0 11.201-5.025 11.201-11.201v-4.801c0-6.177-5.025-11.201-11.201-11.201z"></path>
<path fill="#523494" style="fill: var(--color2, #523494)" d="M9.599 26.125c-3.9-1.851-6.401-5.786-6.401-10.123v-4.801c0-6.176 5.025-11.201 11.201-11.201h-1.6c-6.177 0-11.201 5.025-11.201 11.201v4.801c0 4.336 2.501 8.271 6.401 10.123v5.346c0 0.464 0.581 0.707 0.911 0.377l0.69-0.69v-5.034z"></path>
<path fill="#fff" style="fill: var(--color3, #fff)" d="M24.053 19.881l-0.48-2.598c-0.040-0.215-0.206-0.383-0.42-0.426l-3.772-0.754c-0.175-0.035-0.356 0.020-0.482 0.146l-1.532 1.532c-2.582-1.157-4.015-2.593-5.275-5.285l1.527-1.527c0.126-0.126 0.181-0.307 0.146-0.482l-0.754-3.772c-0.043-0.214-0.212-0.38-0.426-0.42l-2.598-0.479c-0.071-0.013-0.144-0.012-0.215 0.004-0.686 0.156-1.312 0.501-1.81 1-0.863 0.863-1.192 2.121-0.953 3.64 0.401 2.55 1.651 6.1 3.956 8.414l0.031 0.031c2.313 2.304 5.862 3.553 8.413 3.955 0.321 0.051 0.631 0.076 0.927 0.076 1.106 0 2.032-0.349 2.713-1.029 0.498-0.498 0.844-1.124 1-1.81 0.016-0.071 0.017-0.144 0.004-0.215z"></path>
<path fill="#e5e5e5" style="fill: var(--color4, #e5e5e5)" d="M13.098 11.49l0.522-0.522-0.522 0.522z"></path>
<path fill="#e5e5e5" style="fill: var(--color4, #e5e5e5)" d="M18.373 16.775v0z"></path>
<path fill="#e5e5e5" style="fill: var(--color4, #e5e5e5)" d="M21.342 21.929c-0.297 0-0.606-0.025-0.927-0.076-2.55-0.401-6.1-1.651-8.413-3.955l-0.031-0.031c-2.305-2.315-3.555-5.864-3.956-8.414-0.193-1.227-0.015-2.284 0.516-3.1-0.203 0.136-0.394 0.291-0.569 0.466-0.863 0.863-1.192 2.121-0.953 3.64 0.401 2.55 1.651 6.1 3.956 8.414l0.031 0.031c2.313 2.304 5.862 3.553 8.413 3.955 0.321 0.051 0.631 0.076 0.927 0.076 1.106 0 2.032-0.349 2.713-1.029 0.175-0.175 0.33-0.365 0.466-0.569-0.602 0.392-1.336 0.592-2.173 0.592z"></path>
<path fill="#fff" style="fill: var(--color3, #fff)" d="M17.067 9.068c-0.295 0-0.533 0.239-0.533 0.533s0.239 0.533 0.533 0.533c1.177 0 2.134 0.957 2.134 2.134 0 0.291 0.243 0.533 0.533 0.533s0.533-0.243 0.533-0.533c0-1.765-1.436-3.2-3.2-3.2z"></path>
<path fill="#fff" style="fill: var(--color3, #fff)" d="M17.067 6.934c-0.197 0-0.396 0.011-0.592 0.032-0.293 0.032-0.504 0.296-0.472 0.589s0.296 0.504 0.589 0.472c0.157-0.017 0.317-0.026 0.475-0.026 2.353 0 4.267 1.914 4.267 4.267 0 0.158-0.009 0.318-0.026 0.475-0.032 0.289 0.183 0.557 0.472 0.589s0.557-0.183 0.589-0.472c0.022-0.195 0.032-0.395 0.032-0.592 0-2.941-2.393-5.334-5.334-5.334z"></path>
<path fill="#fff" style="fill: var(--color3, #fff)" d="M17.067 4.801c-0.191 0-0.384 0.007-0.574 0.022-0.294 0.022-0.514 0.279-0.492 0.572s0.279 0.514 0.572 0.492c0.163-0.012 0.329-0.019 0.493-0.019 3.529 0 6.401 2.871 6.401 6.401 0 0.499-0.058 0.996-0.171 1.477-0.065 0.276 0.105 0.562 0.378 0.637 0.288 0.079 0.592-0.102 0.66-0.392 0.133-0.561 0.2-1.141 0.2-1.723 0-4.118-3.35-7.468-7.468-7.468z"></path>
</symbol>
<symbol id="icon-telegram-svgrepo-com" viewBox="0 0 32 32">
<path fill="#59aae7" style="fill: var(--color1, #59aae7)" d="M32 16c0 8.837-7.163 16-16 16s-16-7.163-16-16c0-8.837 7.163-16 16-16s16 7.163 16 16z"></path>
<path fill="#3d9ae3" style="fill: var(--color2, #3d9ae3)" d="M16 0c-0.707 0-1.404 0.046-2.087 0.135 7.85 1.023 13.913 7.735 13.913 15.865s-6.063 14.842-13.913 15.865c0.683 0.089 1.38 0.135 2.087 0.135 8.837 0 16-7.163 16-16s-7.163-16-16-16z"></path>
<path fill="#fcfcfc" style="fill: var(--color3, #fcfcfc)" d="M10.293 19.446l-5.16-2.58c-0.141-0.071-0.143-0.272-0.002-0.345l19.604-10.14c0.144-0.074 0.31 0.051 0.279 0.21l-3.375 16.876c-0.024 0.12-0.153 0.188-0.266 0.14l-4.587-1.966c-0.055-0.024-0.118-0.020-0.17 0.009l-5.927 3.293c-0.129 0.072-0.287-0.022-0.287-0.169v-5.155c0-0.073-0.041-0.14-0.107-0.173z"></path>
<path fill="#d8d7da" style="fill: var(--color4, #d8d7da)" d="M12.519 21.185l-0.032-5.152c-0-0.033 0.017-0.064 0.045-0.081l8.369-5.112c0.095-0.058 0.194 0.068 0.116 0.147l-6.369 6.414c-0.007 0.007-0.013 0.015-0.017 0.024l-1.089 2.179-0.844 1.624c-0.045 0.087-0.177 0.055-0.178-0.043z"></path>
</symbol>
<symbol id="icon-wave-haikei" viewBox="0 0 48 32">
<path fill="#fff" style="fill: var(--color1, #fff)" d="M0 0h48v32h-48v-32z"></path>
<path fill="#06f" style="fill: var(--color2, #06f)" d="M0 8.853l2.667 0.731c2.667 0.725 8 2.187 13.333 1.536s10.667-3.403 16-3.477c5.333-0.069 10.667 2.544 13.333 3.851l2.667 1.307v-12.8h-2.667c-2.667 0-8 0-13.333 0s-10.667 0-16 0c-5.333 0-10.667 0-13.333 0h-2.667z"></path>
</symbol>

<symbol id="icon-iconmonstr-linkedin-3" viewBox="0 0 38 38">
<path d="M25.333 0h-18.667c-3.681 0-6.667 2.985-6.667 6.667v18.667c0 3.681 2.985 6.667 6.667 6.667h18.667c3.683 0 6.667-2.985 6.667-6.667v-18.667c0-3.681-2.984-6.667-6.667-6.667zM10.667 25.333h-4v-14.667h4v14.667zM8.667 8.976c-1.288 0-2.333-1.053-2.333-2.352s1.045-2.352 2.333-2.352 2.333 1.053 2.333 2.352-1.044 2.352-2.333 2.352zM26.667 25.333h-4v-7.472c0-4.491-5.333-4.151-5.333 0v7.472h-4v-14.667h4v2.353c1.861-3.448 9.333-3.703 9.333 3.301v9.012z"></path>
</symbol>

</defs>
</svg>