<svg aria-hidden="true" style="position: absolute; width: 0; height: 0; overflow: hidden;" version="1.1" xmlns="http://www.w3.org/2000/svg" xmlns:xlink="http://www.w3.org/1999/xlink">
<defs>


<symbol id="icon-arrow-left" viewBox="0 0 32 32">
<path d="M32 12h-16l6-6-6-6-16 16 16 16 6-6-6-6h16z"></path>
</symbol>
<symbol id="icon-arrow-down" viewBox="0 0 32 32">
<path d="M12 0v16l-6-6-6 6 16 16 16-16-6-6-6 6v-16z"></path>
</symbol>
<symbol id="icon-arrow-right" viewBox="0 0 32 32">
<path d="M0 20h16l-6 6 6 6 16-16-16-16-6 6 6 6h-16z"></path>
</symbol>
<symbol id="icon-arrow-up" viewBox="0 0 32 32">
<path d="M20 32v-16l6 6 6-6-16-16-16 16 6 6 6-6v16z"></path>
</symbol>

</defs>
</svg>